<svg width="20" height="22" viewBox="0 0 20 22" fill="none" xmlns="http://www.w3.org/2000/svg">
<path fill-rule="evenodd" clip-rule="evenodd" d="M1.15437 0.131275C0.748653 0.289171 0.201614 0.921889 0.0906824 1.36136C-0.0314373 1.84517 -0.0296123 20.157 0.0925074 20.6426C0.209152 21.1058 0.812609 21.7696 1.23372 21.8979C1.68109 22.034 18.3227 22.034 18.7701 21.8979C19.1912 21.7696 19.7946 21.1058 19.9113 20.6426C19.9726 20.3988 19.9993 17.8306 19.9995 12.1317L20 3.97001L18.1942 1.985L16.3883 0H15.4566H14.5248V3.18445V6.36891L14.2934 6.65398L14.0618 6.93904L9.65117 6.96305C4.76495 6.98958 4.90532 7.00459 4.65648 6.42782C4.54404 6.16728 4.52675 5.71821 4.52675 3.06357V0L2.99926 0.00384037C1.89185 0.00663344 1.38448 0.0416344 1.15437 0.131275ZM10.8747 2.48758V4.97516H11.7873H12.6998V2.48758V0H11.7873H10.8747V2.48758ZM14.8513 12.0457C15.4439 12.1676 15.8662 12.5111 16.1317 13.087L16.3499 13.5603V16.7741V19.9879H10.0019H3.6539V16.8151C3.6539 14.6753 3.68333 13.5457 3.7442 13.3456C3.94678 12.6801 4.45993 12.1891 5.0968 12.0512C5.59408 11.9434 14.3304 11.9386 14.8513 12.0457Z" fill="#E6E6E6"/>
</svg>
