<svg width="22" height="20" viewBox="0 0 22 20" fill="none" xmlns="http://www.w3.org/2000/svg">
<path fill-rule="evenodd" clip-rule="evenodd" d="M0.711035 0.0459627C0.585024 0.0767787 0.417312 0.161558 0.338434 0.234409C-0.0136993 0.559398 0.000294078 0.23448 0.000294078 8.0712C0.000294078 16.1532 -0.0267877 15.6661 0.438824 15.9556C0.657219 16.0914 0.868861 16.0942 11.0001 16.0942C21.1313 16.0942 21.343 16.0914 21.5614 15.9556C22.0271 15.666 21.9999 16.1547 21.9996 8.057C21.9994 0.912008 21.9959 0.716318 21.8637 0.495281C21.7891 0.370525 21.6418 0.210765 21.5364 0.140257C21.354 0.0184128 20.8483 0.0115964 11.1424 0.00108767C5.53118 -0.00501874 0.837045 0.0152176 0.711035 0.0459627ZM21.0252 6.5801V12.1895H11.0001H0.97496V6.5801V0.970728H11.0001H21.0252V6.5801ZM19.6329 14.1776V14.6746H19.1455H18.6582V14.1776V13.6806H19.1455H19.6329V14.1776ZM8.14572 17.5793V18.0699L7.11884 18.0941C6.1849 18.1162 6.06815 18.1335 5.82873 18.2853C5.48453 18.5036 5.31383 18.8605 5.25312 19.489L5.20376 20H11.0001H16.7964L16.7471 19.489C16.6864 18.8605 16.5157 18.5036 16.1715 18.2853C15.932 18.1335 15.8153 18.1162 14.8814 18.0941L13.8545 18.0699V17.5793V17.0888H11.0001H8.14572V17.5793Z" fill="#E6E6E6"/>
</svg>
