<svg width="14" height="13" viewBox="0 0 14 13" fill="none" xmlns="http://www.w3.org/2000/svg">
<path d="M3.11082 1.1967C2.7203 0.806178 2.08713 0.806178 1.69661 1.1967C1.30608 1.58723 1.30608 2.22039 1.69661 2.61092L10.889 11.8033C11.2795 12.1938 11.9127 12.1938 12.3032 11.8033C12.6937 11.4128 12.6937 10.7796 12.3032 10.3891L3.11082 1.1967Z" fill="#545454"/>
<path d="M12.3033 2.61107C12.6938 2.22054 12.6938 1.58738 12.3033 1.19685C11.9128 0.806329 11.2796 0.806329 10.8891 1.19685L1.6967 10.3892C1.30617 10.7798 1.30617 11.4129 1.6967 11.8035C2.08722 12.194 2.72039 12.194 3.11091 11.8035L12.3033 2.61107Z" fill="#545454"/>
</svg>
