<svg width="20" height="22" viewBox="0 0 20 22" fill="none" xmlns="http://www.w3.org/2000/svg">
<path fill-rule="evenodd" clip-rule="evenodd" d="M9.43175 0.0683187C8.56006 0.369137 8.11126 0.94394 8.11126 1.75981C8.11126 2.46161 8.46593 2.97903 9.18873 3.33179C9.62343 3.5439 10.3962 3.52917 10.8725 3.2997C11.525 2.98537 11.8802 2.43734 11.8802 1.74508C11.8802 1.05121 11.5212 0.4987 10.8738 0.19628C10.4483 -0.00251488 9.80295 -0.059771 9.43175 0.0683187ZM6.90415 2.8528C5.9832 3.32141 5.31813 3.88072 4.78227 4.63747C4.10115 5.5993 3.84938 6.5022 3.77601 8.24563C3.63137 11.6862 2.94365 13.255 0.969124 14.6488C0.123904 15.2455 0.037478 15.3515 0.00419994 15.8329C-0.0474887 16.5813 0.375469 17.093 1.4091 17.5328C2.38021 17.946 3.73627 18.2006 5.89678 18.3756C7.24666 18.4849 12.743 18.485 14.0947 18.3757C18.2083 18.0432 20 17.2982 20 15.9202C20 15.4874 19.8501 15.258 19.3053 14.8567C18.3441 14.1486 18.1357 13.973 17.7924 13.5819C17.5908 13.3522 17.2884 12.9006 17.1203 12.5783C16.5542 11.4925 16.3507 10.5339 16.2145 8.30967C16.1058 6.53499 16.0018 6.04505 15.5559 5.20696C15.1771 4.49503 14.6515 3.87969 14.0389 3.43086C13.5968 3.10705 12.7133 2.62217 12.6808 2.68558C12.1995 3.62614 11.4533 4.17564 10.4158 4.35356C9.32893 4.53987 7.97197 3.9112 7.48954 2.99779C7.39686 2.82231 7.30536 2.67808 7.28626 2.67738C7.26715 2.67667 7.0952 2.75558 6.90415 2.8528ZM7.16801 19.7319C7.24263 20.4903 7.90798 21.3499 8.70999 21.724C9.49324 22.0893 10.4778 22.0922 11.2776 21.7314C12.065 21.3763 12.7493 20.4857 12.8249 19.7179L12.8604 19.3563H9.99574H7.13105L7.16801 19.7319Z" fill="#E6E6E6"/>
</svg>
