<svg width="36" height="36" viewBox="0 0 36 36" fill="none" xmlns="http://www.w3.org/2000/svg">
<path d="M24.7174 20.1062C24.7174 23.5836 21.8281 26.4573 18.1957 26.4573C14.5632 26.4573 11.6739 23.5836 11.6739 20.1062C11.6739 16.6288 14.5632 13.7551 18.1957 13.7551C21.8281 13.7551 24.7174 16.6288 24.7174 20.1062Z" stroke="#76B39D" stroke-width="3"/>
<path d="M11.6304 3.25532C11.6304 4.76697 10.3754 6.01065 8.80436 6.01065C7.23336 6.01065 5.97827 4.76697 5.97827 3.25532C5.97827 1.74368 7.23336 0.5 8.80436 0.5C10.3754 0.5 11.6304 1.74368 11.6304 3.25532Z" stroke="#76B39D"/>
<path d="M5.36956 18.5745C5.36956 19.8746 4.28966 20.9468 2.93478 20.9468C1.5799 20.9468 0.5 19.8746 0.5 18.5745C0.5 17.2744 1.5799 16.2021 2.93478 16.2021C4.28966 16.2021 5.36956 17.2744 5.36956 18.5745Z" stroke="#76B39D"/>
<path d="M35.5 22.0215C35.5 23.3216 34.4201 24.3939 33.0652 24.3939C31.7103 24.3939 30.6304 23.3216 30.6304 22.0215C30.6304 20.7214 31.7103 19.6492 33.0652 19.6492C34.4201 19.6492 35.5 20.7214 35.5 22.0215Z" stroke="#76B39D"/>
<path d="M10.8478 32.7446C10.8478 34.2562 9.59273 35.4999 8.02173 35.4999C6.45074 35.4999 5.19565 34.2562 5.19565 32.7446C5.19565 31.2329 6.45074 29.9893 8.02173 29.9893C9.59273 29.9893 10.8478 31.2329 10.8478 32.7446Z" stroke="#76B39D"/>
<line y1="-0.5" x2="8.78219" y2="-0.5" transform="matrix(0.46769 0.883892 -0.891969 0.452096 9.78262 6.12769)" stroke="#76B39D"/>
<line y1="-0.5" x2="5.47715" y2="-0.5" transform="matrix(0.998281 0.0586128 -0.0611792 0.998127 5.08508 19.5598)" stroke="#76B39D"/>
<line y1="-0.5" x2="4.75939" y2="-0.5" transform="matrix(0.99505 0.099378 -0.103699 0.994609 25.806 21.5935)" stroke="#76B39D"/>
<line y1="-0.5" x2="6.56688" y2="-0.5" transform="matrix(0.697055 -0.717017 0.731821 0.681497 10.233 31.4609)" stroke="#76B39D"/>
</svg>
