<svg width="16" height="16" viewBox="0 0 16 16" fill="none" xmlns="http://www.w3.org/2000/svg">
<path fill-rule="evenodd" clip-rule="evenodd" d="M7.76969 0.0651384C7.4641 0.197997 7.45189 0.251062 7.45189 1.44749V2.53072L7.59729 2.6933C7.72595 2.83716 7.77234 2.85588 8 2.85588C8.22766 2.85588 8.27405 2.83716 8.40271 2.6933L8.54811 2.53072V1.44749C8.54811 0.244192 8.53655 0.195409 8.21929 0.0629979C8.01694 -0.0214763 7.96836 -0.0212274 7.76969 0.0651384ZM2.45726 2.26177C2.20035 2.40105 2.10005 2.75139 2.24021 3.02015C2.27878 3.09407 2.6207 3.45904 3.00009 3.83119C3.7227 4.54008 3.82694 4.603 4.13702 4.51743C4.41506 4.44078 4.58134 4.15211 4.52359 3.84617C4.49369 3.68758 3.24744 2.37895 3.00722 2.2539C2.83576 2.16465 2.63097 2.16759 2.45726 2.26177ZM12.9579 2.27705C12.8757 2.32812 12.5149 2.66965 12.1561 3.03602C11.4728 3.73367 11.4089 3.84109 11.494 4.14882C11.5707 4.42659 11.8597 4.5927 12.1659 4.53501C12.3247 4.50514 13.6346 3.26013 13.7598 3.02015C14.027 2.50787 13.4489 1.97216 12.9579 2.27705ZM7.25631 4.07675C5.7523 4.39249 4.62349 5.42555 4.15546 6.91457C4.0554 7.23286 4.03866 7.38971 4.03866 8.00796C4.03866 8.62621 4.0554 8.78306 4.15546 9.10135C4.58792 10.4772 5.52832 11.4166 6.90552 11.8487C7.22413 11.9486 7.38113 11.9654 8 11.9654C8.61887 11.9654 8.77587 11.9486 9.09448 11.8487C10.4717 11.4166 11.4121 10.4772 11.8445 9.10135C11.9446 8.78306 11.9613 8.62621 11.9613 8.00796C11.9613 7.38971 11.9446 7.23286 11.8445 6.91457C11.4154 5.54915 10.4791 4.60724 9.12113 4.17496C8.72829 4.04986 7.65374 3.99327 7.25631 4.07675ZM0.212206 7.56075C0.141998 7.6159 0.0587353 7.73911 0.0272439 7.83453C-0.0455551 8.0549 0.0313796 8.31305 0.212206 8.45517C0.331395 8.54885 0.412515 8.55552 1.42861 8.55552H2.51731L2.68005 8.41027C2.82405 8.28174 2.84278 8.2354 2.84278 8.00796C2.84278 7.78052 2.82405 7.73418 2.68005 7.60565L2.51731 7.4604H1.42861C0.412515 7.4604 0.331395 7.46707 0.212206 7.56075ZM13.32 7.60565C13.176 7.73418 13.1572 7.78052 13.1572 8.00796C13.1572 8.2354 13.176 8.28174 13.32 8.41027L13.4827 8.55552H14.5714C15.5875 8.55552 15.6686 8.54885 15.7878 8.45517C15.9686 8.31305 16.0456 8.0549 15.9728 7.83453C15.9413 7.73911 15.858 7.6159 15.7878 7.56075C15.6686 7.46707 15.5875 7.4604 14.5714 7.4604H13.4827L13.32 7.60565ZM3.00727 12.1769C2.62394 12.5534 2.27878 12.9219 2.24021 12.9958C1.98325 13.4884 2.51407 14.0187 3.00722 13.762C3.08121 13.7235 3.45009 13.3787 3.82689 12.9957L4.51203 12.2995V12.0491C4.51203 11.8359 4.48926 11.776 4.35871 11.6456C4.22816 11.5152 4.16821 11.4925 3.9548 11.4925H3.70421L3.00727 12.1769ZM11.6413 11.6456C11.5107 11.776 11.488 11.8359 11.488 12.0491V12.2995L12.1731 12.9957C12.55 13.3787 12.9188 13.7235 12.9928 13.762C13.4859 14.0187 14.0168 13.4884 13.7598 12.9958C13.7212 12.9219 13.3761 12.5534 12.9927 12.1769L12.2958 11.4925H12.0452C11.8318 11.4925 11.7718 11.5152 11.6413 11.6456ZM7.77019 13.1839C7.71234 13.2073 7.61702 13.2873 7.55842 13.3617C7.45702 13.4905 7.45189 13.5491 7.45189 14.5787C7.45189 15.5878 7.45862 15.669 7.55234 15.788C7.6946 15.9687 7.95301 16.0455 8.1736 15.9728C8.26912 15.9413 8.39245 15.8581 8.44766 15.788C8.54133 15.669 8.54811 15.5878 8.54811 14.5831C8.54811 13.4051 8.53809 13.3591 8.24859 13.2095C8.08989 13.1275 7.93099 13.119 7.77019 13.1839Z" fill="black"/>
</svg>
