<svg width="16" height="16" viewBox="0 0 16 16" fill="none" xmlns="http://www.w3.org/2000/svg">
<path fill-rule="evenodd" clip-rule="evenodd" d="M5.42846 0.0189537C4.56451 0.327382 3.4806 0.988584 2.72071 1.67064C-1.81757 5.7442 -0.475509 13.0488 5.2386 15.3745C8.75891 16.8074 12.8634 15.7183 15.2288 12.7237C15.4957 12.3858 16 11.5983 16 11.5194C16 11.5005 15.3912 11.6338 15.0818 11.7098C11.8332 12.5076 8.69469 11.2091 6.66325 8.5802C5.94513 7.65083 5.46849 6.66618 5.16624 5.48732C4.95053 4.6461 4.89668 3.21512 5.04719 2.32246C5.14465 1.74454 5.21212 1.30817 5.45904 0.773874C5.5771 0.518383 5.81053 -0.117445 5.42846 0.0189537Z" fill="black"/>
</svg>
